# xmcd
#
# Track frame offsets:
# 150
# 9682
# 15725
# 18474
# 26800
# 30918
# 40167
# 46407
# 48778
# 59717
# 71777
# 84610
# 101047
# 117502
# 136352
#
# Disc length: 2013 seconds
#
#
# Revision: 0
# Processed by: cddbd v1.5.2PL0 Copyright (c) Steve Scherf et al.
# Submitted via: FreeRIP 2.951 
#
DISCID=cc07db0f
DTITLE=Simon Brixi: and Jan Jakub Ryba - Simon Brixi: Magnificat and Jan Jakub Ryba
DYEAR=2005
DGENRE=
TTITLE0=Magnificat I. Magnificat
TTITLE1=Magnificat II. Quia respexit
TTITLE2=Magnificat III. Ecce enim
TTITLE3=Magnificat IV. Quia fecit
TTITLE4=Magnificat V. Et misericordia ejus
TTITLE5=Magnificat VI. Fecit potentiam
TTITLE6=Magnificat VII. Deposuit
TTITLE7=Magnificat VIII. Esurientes
TTITLE8=Magnificat IX. SIcut locutus est
TTITLE9=Magnificat X. GLoria patri
TTITLE10=Adoro Te (Jakub Jan Ryba)
TTITLE11=Ave Maria (Jakub Jan Ryba)
TTITLE12=Pater noster (Jakub Jan Ryba)
TTITLE13=Salve virgo (Jakub Jan Ryba)
TTITLE14=Regina coeli (Jakub Jan Ryba)
EXTD=
EXTT0=
EXTT1=
EXTT2=
EXTT3=
EXTT4=
EXTT5=
EXTT6=
EXTT7=
EXTT8=
EXTT9=
EXTT10=
EXTT11=
EXTT12=
EXTT13=
EXTT14=
PLAYORDER=
